<?xml version="1.0" encoding="UTF-8"?>
<!DOCTYPE svg PUBLIC "-//W3C//DTD SVG 1.1//EN" "http://www.w3.org/Graphics/SVG/1.1/DTD/svg11.dtd">
<!-- Creator: CorelDRAW 2020 (64-Bit) -->
<svg xmlns="http://www.w3.org/2000/svg" xml:space="preserve" width="36.4741mm" height="29mm" version="1.1" style="shape-rendering:geometricPrecision; text-rendering:geometricPrecision; image-rendering:optimizeQuality; fill-rule:evenodd; clip-rule:evenodd"
viewBox="0 0 3633.2 2888.7"
 xmlns:xlink="http://www.w3.org/1999/xlink"
 xmlns:xodm="http://www.corel.com/coreldraw/odm/2003">
 <defs>
  <style type="text/css">
   <![CDATA[
    .fil0 {fill:#5B5B5B}
    .fil1 {fill:#67B437;fill-rule:nonzero}
   ]]>
  </style>
 </defs>
 <g id="Ebene_x0020_1">
  <metadata id="CorelCorpID_0Corel-Layer"/>
  <g id="_2436829447136">
   <path class="fil0" d="M29.88 0l3573.43 0c16.43,0 29.88,13.45 29.88,29.87l0 2828.95c0,16.42 -13.46,29.87 -29.88,29.87l-3573.43 0c-16.43,0 -29.88,-13.46 -29.88,-29.87l0 -2828.95c0,-16.43 13.46,-29.87 29.88,-29.87zm137.83 150.04l3320.76 0 0 2589.87 -3320.76 0 0 -2589.87z"/>
   <path class="fil1" d="M1274.62 1911.27c0,17.18 -0.6,31.99 -2.07,43.84 -1.48,11.85 -3.85,21.63 -6.52,29.33 -2.96,8 -6.51,13.64 -10.96,16.89 -4.44,3.56 -9.48,5.33 -15.11,5.33l-514.58 0c-18.96,0 -34.95,-5.63 -47.99,-16.88 -13.03,-11.26 -19.55,-29.62 -19.55,-55.1l0 -1020.27c0,-5.63 1.78,-10.96 5.64,-15.7 3.84,-4.44 10.07,-8.3 18.66,-11.26 8.6,-2.96 20.44,-5.04 35.25,-6.81 14.81,-1.77 33.18,-2.67 55.1,-2.67 22.51,0 41.18,0.9 55.69,2.67 14.22,1.77 26.07,3.85 34.66,6.81 8.59,2.96 14.81,6.81 18.66,11.26 3.85,4.74 5.64,10.07 5.64,15.7l0 903.84 352.82 0c5.63,0 10.97,1.48 15.11,4.74 4.44,3.26 8,8.3 10.96,15.7 2.97,7.11 5.04,16.6 6.52,28.74 1.47,11.85 2.07,26.37 2.07,43.85zm893.4 -686.69c0,63.39 -9.78,119.08 -29.62,167.67 -19.55,48.88 -48.29,89.76 -86.21,122.94 -37.62,33.47 -83.83,58.65 -138.64,76.13 -54.81,17.48 -119.38,26.07 -193.74,26.07l-93.91 0 0 358.16c0,5.93 -1.77,10.97 -5.63,15.71 -3.85,4.44 -10.07,8.29 -18.67,11.26 -8.59,2.96 -20.14,5.03 -34.65,6.81 -14.22,1.77 -32.88,2.66 -55.1,2.66 -21.92,0 -40.29,-0.89 -55.1,-2.66 -14.81,-1.78 -26.37,-4.15 -34.95,-6.81 -8.59,-2.97 -14.81,-6.81 -18.07,-11.26 -3.56,-4.74 -5.34,-10.08 -5.34,-15.71l0 -1010.49c0,-27.25 7.11,-47.69 21.34,-61.32 14.21,-13.63 32.88,-20.44 55.99,-20.44l264.84 0c26.66,0 52.14,0.89 76.13,2.96 24,2.07 52.73,6.51 86.5,13.04 33.48,6.81 67.55,18.96 101.91,37.03 34.37,17.78 63.99,40.59 88.27,68.13 24.29,27.55 42.96,59.55 55.7,96.58 12.73,36.74 18.96,77.92 18.96,123.54zm-238.18 16.59c0,-39.4 -7.11,-71.99 -21.04,-97.47 -13.93,-25.47 -31.11,-44.44 -51.55,-56.58 -20.44,-12.14 -41.77,-19.85 -63.99,-23.11 -22.51,-3.26 -45.62,-4.74 -69.62,-4.74l-97.76 0 0 382.15 103.1 0c36.74,0 67.25,-5.03 92.13,-14.81 24.58,-9.77 45.02,-23.7 60.73,-41.47 15.7,-17.48 27.55,-38.81 35.84,-63.4 8,-24.58 12.15,-51.54 12.15,-80.57zm1068.5 675.74c0,16.88 -0.6,30.81 -2.07,42.36 -1.48,11.26 -3.56,20.44 -6.52,27.25 -2.96,7.1 -6.51,12.14 -10.96,15.4 -4.14,3.26 -9.18,4.74 -14.22,4.74l-563.46 0c-18.96,0 -34.95,-5.63 -47.99,-16.88 -13.03,-11.26 -19.55,-29.62 -19.55,-55.1l0 -979.38c0,-25.48 6.52,-43.85 19.55,-55.1 13.04,-11.26 29.04,-16.88 47.99,-16.88l560.8 0c5.03,0 9.77,1.47 13.93,4.44 3.84,2.96 7.4,8 10.36,15.11 2.67,7.4 5.04,16.59 6.52,27.84 1.47,11.55 2.07,25.78 2.07,43.25 0,16.3 -0.6,29.92 -2.07,41.48 -1.48,11.26 -3.56,20.44 -6.52,27.25 -2.96,7.11 -6.51,12.14 -10.36,15.4 -4.15,3.27 -8.9,4.74 -13.93,4.74l-400.82 0 0 273.73 337.72 0c5.33,0 10.07,1.48 14.22,4.74 4.44,3.26 8,8 10.96,14.81 2.96,6.52 5.04,15.41 6.51,26.96 1.48,11.26 2.07,24.88 2.07,40.88 0,16.88 -0.59,30.81 -2.07,41.77 -1.47,10.97 -3.56,19.85 -6.51,26.37 -2.96,6.81 -6.51,11.55 -10.96,14.22 -4.15,2.96 -8.9,4.44 -14.22,4.44l-337.72 0 0 316.38 403.48 0c5.34,0 10.08,1.48 14.22,4.74 4.44,3.26 8,8.3 10.96,15.41 2.97,6.81 5.04,16 6.52,27.25 1.47,11.55 2.07,25.47 2.07,42.36z"/>
  </g>
 </g>
</svg>
